M48
; DRILL file KiCad 10.0.1 date 2026-05-15T12:33:44
; FORMAT={-:-/ absolute / metric / decimal}
; #@! TF.CreationDate,2026-05-15T12:33:44-03:00
; #@! TF.GenerationSoftware,Kicad,Pcbnew,10.0.1
; #@! TF.FileFunction,Plated,1,2,PTH
FMAT,2
METRIC
; #@! TA.AperFunction,Plated,PTH,ComponentDrill
T1C0.700
; #@! TA.AperFunction,Plated,PTH,ComponentDrill
T2C0.800
; #@! TA.AperFunction,Plated,PTH,ComponentDrill
T3C0.950
; #@! TA.AperFunction,Plated,PTH,ComponentDrill
T4C2.200
%
G90
G05
T1
X79.08Y-62.5
X81.69Y-59.2
X81.69Y-65.5
X86.7Y-62.5
X88.19Y-75.0
X89.0Y-88.0
X89.31Y-59.2
X89.31Y-65.5
X90.19Y-72.0
X90.19Y-78.0
X91.19Y-91.0
X91.38Y-85.0
X95.81Y-75.0
X96.62Y-88.0
X97.81Y-72.0
X97.81Y-78.0
X98.81Y-91.0
X99.0Y-85.0
X117.975Y-53.075
X120.0Y-92.19
X120.0Y-99.81
X123.075Y-64.0
X123.075Y-71.62
X125.595Y-53.075
X127.345Y-81.845
X127.345Y-86.845
X129.345Y-84.345
X134.965Y-81.845
X134.965Y-86.845
X136.965Y-84.345
X138.375Y-72.695
X138.375Y-80.315
X140.875Y-75.0
X140.875Y-82.62
X143.375Y-72.505
X143.375Y-80.125
X149.785Y-75.5
X149.785Y-89.88
X151.285Y-73.0
X151.285Y-78.0
X151.665Y-87.38
X151.785Y-92.38
X154.0Y-55.0
X157.405Y-75.5
X157.405Y-89.88
X158.905Y-73.0
X158.905Y-78.0
X159.285Y-87.38
X159.405Y-92.38
X161.62Y-55.0
X172.0Y-49.0
X172.0Y-56.62
X176.0Y-52.0
X176.0Y-59.62
X181.0Y-54.69
X181.0Y-62.31
X185.0Y-53.5
X185.0Y-61.12
X188.595Y-54.88
X188.595Y-62.5
T2
X106.0Y-96.0
X106.0Y-106.16
X108.845Y-71.22
X108.845Y-73.76
X108.845Y-76.3
X108.845Y-78.84
X108.845Y-81.38
X108.845Y-83.92
X108.845Y-86.46
X108.845Y-89.0
X116.465Y-71.22
X116.465Y-73.76
X116.465Y-76.3
X116.465Y-78.84
X116.465Y-81.38
X116.465Y-83.92
X116.465Y-86.46
X116.465Y-89.0
X131.38Y-55.0
X131.38Y-62.62
X133.92Y-55.0
X133.92Y-62.62
X136.46Y-55.0
X136.46Y-62.62
X139.0Y-55.0
X139.0Y-62.62
X141.54Y-55.0
X141.54Y-62.62
X142.0Y-86.84
X142.0Y-97.0
X144.08Y-55.0
X144.08Y-62.62
X146.62Y-55.0
X146.62Y-62.62
X149.16Y-55.0
X149.16Y-62.62
X168.475Y-65.26
X168.475Y-67.8
X168.475Y-70.34
X168.475Y-72.88
X168.475Y-75.42
X168.475Y-77.96
X168.475Y-80.5
X168.475Y-83.04
X176.095Y-65.26
X176.095Y-67.8
X176.095Y-70.34
X176.095Y-72.88
X176.095Y-75.42
X176.095Y-77.96
X176.095Y-80.5
X176.095Y-83.04
X187.38Y-76.0
X202.62Y-76.0
T3
X94.0Y-60.0
X94.0Y-62.5
X94.0Y-65.0
X103.0Y-72.5
X103.0Y-75.0
X103.0Y-77.5
X103.0Y-85.0
X103.0Y-87.5
X103.0Y-90.0
X113.155Y-53.845
X113.155Y-56.345
X113.155Y-58.845
X113.155Y-61.345
X113.155Y-63.845
X122.155Y-78.845
X122.155Y-81.345
X122.155Y-83.845
X136.0Y-68.0
X138.5Y-68.0
X141.0Y-68.0
X161.5Y-60.0
X163.095Y-73.0
X163.095Y-75.5
X163.095Y-78.0
X164.0Y-60.0
X166.5Y-60.0
X169.0Y-60.0
X170.095Y-91.0
X171.5Y-60.0
X172.595Y-91.0
X175.095Y-91.0
X182.595Y-67.0
X185.095Y-67.0
X187.595Y-67.0
T4
X148.0Y-68.0
X187.595Y-71.5
M30
